<svg xmlns="http://www.w3.org/2000/svg" viewBox="0 0 200 200">
  <rect width="200" height="200" rx="20" fill="#1A2535"/>
  
  <!-- ball -->
  <circle cx="100" cy="32" r="14" fill="#FFB347"/>
  <!-- pins -->
  <circle cx="100" cy="70" r="5" fill="#FFB347" opacity="0.8"/>
  <circle cx="75" cy="90" r="5" fill="#FFB347" opacity="0.8"/>
  <circle cx="125" cy="90" r="5" fill="#FFB347" opacity="0.8"/>
  <circle cx="55" cy="110" r="5" fill="#FFB347" opacity="0.8"/>
  <circle cx="100" cy="110" r="5" fill="#FFB347" opacity="0.8"/>
  <circle cx="145" cy="110" r="5" fill="#FFB347" opacity="0.8"/>
  <circle cx="40" cy="130" r="5" fill="#FFB347" opacity="0.8"/>
  <circle cx="80" cy="130" r="5" fill="#FFB347" opacity="0.8"/>
  <circle cx="120" cy="130" r="5" fill="#FFB347" opacity="0.8"/>
  <circle cx="160" cy="130" r="5" fill="#FFB347" opacity="0.8"/>
  <!-- buckets -->
  <rect x="25" y="155" width="30" height="22" rx="4" fill="#FFB347" opacity="0.4"/>
  <rect x="62" y="155" width="30" height="22" rx="4" fill="#E53935" opacity="0.8"/>
  <rect x="100" y="155" width="30" height="22" rx="4" fill="#FFB347" opacity="0.9"/>
  <rect x="138" y="155" width="30" height="22" rx="4" fill="#E53935" opacity="0.8"/>
  <!-- path line -->
  <polyline points="100,46 100,65 75,85 100,105 80,125 62,155" fill="none" stroke="#FFB347" stroke-width="2" stroke-dasharray="4,3" opacity="0.6"/>

</svg>